<svg id="Group_5959" data-name="Group 5959" xmlns="http://www.w3.org/2000/svg" width="482.252" height="235.699" viewBox="0 0 482.252 235.699">
  <path id="Path_11812" data-name="Path 11812" d="M156.54,96.441a25.057,25.057,0,0,0-7.183,1.173,5.088,5.088,0,0,0-3.005,3.372,28.758,28.758,0,0,0-.806,8.063v72.711a28.757,28.757,0,0,0,.806,8.063,5.088,5.088,0,0,0,3.005,3.372,25.057,25.057,0,0,0,7.183,1.173V197.3q-7.183-.44-22.282-.44-14.806,0-23.015.44v-2.932a25.452,25.452,0,0,0,7.11-1.173,5.072,5.072,0,0,0,3.078-3.372,28.758,28.758,0,0,0,.806-8.063V146.576H83.389v35.183a28.758,28.758,0,0,0,.806,8.063,5.088,5.088,0,0,0,3.005,3.372,25.057,25.057,0,0,0,7.183,1.173V197.3q-7.916-.44-22.136-.44-15.686,0-23.162.44v-2.932a25.452,25.452,0,0,0,7.11-1.173,5.072,5.072,0,0,0,3.078-3.372,28.758,28.758,0,0,0,.806-8.063V109.048a28.758,28.758,0,0,0-.806-8.063A5.072,5.072,0,0,0,56.2,97.613a25.452,25.452,0,0,0-7.11-1.173V93.509q7.476.44,23.162.44,14.22,0,22.136-.44v2.932A25.057,25.057,0,0,0,87.2,97.613a5.088,5.088,0,0,0-3.005,3.372,28.758,28.758,0,0,0-.806,8.063v34.6h38.848v-34.6a28.758,28.758,0,0,0-.806-8.063,5.073,5.073,0,0,0-3.078-3.372,25.452,25.452,0,0,0-7.11-1.173V93.509q8.209.44,23.015.44,15.1,0,22.282-.44Zm94.407,88.543a18.159,18.159,0,0,0,4.4,7.037,8.26,8.26,0,0,0,4.838,2.346V197.3q-8.8-.44-22.282-.44-14.953,0-22.282.44v-2.932q5.571-.293,7.916-1.393a3.934,3.934,0,0,0,2.345-3.885,20.273,20.273,0,0,0-1.759-7.037l-8.8-24.041H183.366l-3.811,10.115q-4.1,10.555-4.1,16.272,0,5.424,3.3,7.55t9.749,2.419V197.3q-9.968-.44-18.178-.44-6.743,0-11.141.44v-2.932q7.183-1.319,12.607-15.392l33.424-85.758q1.613.147,5.131.147t4.984-.147ZM214.3,155.078,199.785,115.5l-15.246,39.581Zm125.338-61.57q-1.026,12.461-1.026,22.282,0,6.89.44,11.141h-3.372q-2.932-16.565-8.8-23.309T310.464,96.88h-4.838a21.365,21.365,0,0,0-6.6.733,4.395,4.395,0,0,0-2.785,2.859,22.8,22.8,0,0,0-.733,6.817V144.23h5.131q7.77,0,11.8-5.717a35.727,35.727,0,0,0,5.644-13.633h3.372q-.44,6.157-.44,13.78V145.7q0,7.476.88,20.816h-3.372q-3.079-19.35-17.885-19.35h-5.131v33.717q0,5.864,1.246,8.576a6.465,6.465,0,0,0,4.4,3.592,44.579,44.579,0,0,0,10.042,1.026V197.3q-18.031-.44-26.827-.44-7.33,0-18.471.293l-4.691.147v-2.932a25.452,25.452,0,0,0,7.11-1.173,5.072,5.072,0,0,0,3.078-3.372,28.759,28.759,0,0,0,.806-8.063V109.048a28.759,28.759,0,0,0-.806-8.063,5.073,5.073,0,0,0-3.078-3.372,25.452,25.452,0,0,0-7.11-1.173V93.509q15.832.44,47.79.44Q330.547,93.948,339.636,93.509Zm97.485,0Q436.1,107.435,436.1,118.43q0,6.89.44,11.141h-3.372q-3.518-18.031-9.6-25.361t-16.638-7.33h-3.372v83.705q0,6.157,1.246,8.942a6.658,6.658,0,0,0,4.4,3.738,41.026,41.026,0,0,0,10.042,1.1V197.3q-18.471-.44-27.853-.44-9.236,0-26.827.44v-2.932a41.026,41.026,0,0,0,10.042-1.1,6.658,6.658,0,0,0,4.4-3.738q1.246-2.785,1.246-8.942V96.88h-3.225a22.056,22.056,0,0,0-11.947,3.078q-4.911,3.078-8.429,10.188t-6.01,19.424h-3.372q.44-4.251.44-11.141,0-10.995-1.026-24.921,13.34.44,45.3.44T437.121,93.509ZM522,184.984a18.159,18.159,0,0,0,4.4,7.037,8.259,8.259,0,0,0,4.838,2.346V197.3q-8.8-.44-22.282-.44-14.953,0-22.282.44v-2.932q5.571-.293,7.916-1.393a3.934,3.934,0,0,0,2.346-3.885,20.274,20.274,0,0,0-1.759-7.037l-8.8-24.041H454.42l-3.811,10.115q-4.1,10.555-4.1,16.272,0,5.424,3.3,7.55t9.749,2.419V197.3q-9.968-.44-18.178-.44-6.743,0-11.141.44v-2.932q7.183-1.319,12.607-15.392l33.424-85.758q1.613.147,5.131.147t4.984-.147Zm-36.649-29.905L470.838,115.5l-15.246,39.581Z" transform="translate(-48.983 -93.215)"/>
  <path id="Path_11813" data-name="Path 11813" d="M890.5,90.647a40.844,40.844,0,0,1,12.167,1.466,45.542,45.542,0,0,1,9.236,4.251q1.613.88,2.859,1.466a5.188,5.188,0,0,0,2.126.586,2.263,2.263,0,0,0,2.052-1.539,17.507,17.507,0,0,0,1.173-4.911h3.372q-.733,9.822-.733,33.424h-3.372a48.05,48.05,0,0,0-3.592-15.1,29.244,29.244,0,0,0-8.5-11.654,19.723,19.723,0,0,0-12.827-4.471q-7.183,0-11.654,4.031t-4.471,10.921a17.583,17.583,0,0,0,2.2,8.942,24.8,24.8,0,0,0,6.157,6.963q3.958,3.152,12.167,8.576l4.691,3.225a143.83,143.83,0,0,1,13.633,9.968,35.965,35.965,0,0,1,8.136,9.9,26.464,26.464,0,0,1,3.152,13.12q0,9.382-4.838,15.759a29.422,29.422,0,0,1-13.12,9.6,50.321,50.321,0,0,1-18.4,3.225,53.3,53.3,0,0,1-13.633-1.466,45.133,45.133,0,0,1-9.968-3.958q-3.225-2.052-4.984-2.052a2.263,2.263,0,0,0-2.052,1.539,17.515,17.515,0,0,0-1.173,4.911h-3.372q.586-9.235.586-39.58h3.372q1.026,16.419,7.33,26.607t19.35,10.188q7.916,0,13.047-4.251t5.131-12.167a20.311,20.311,0,0,0-5.277-14.073q-5.277-5.864-16.712-13.194-8.8-5.717-14.073-9.968a36.178,36.178,0,0,1-8.649-10.042,26.169,26.169,0,0,1-3.372-13.413,24.433,24.433,0,0,1,4.471-14.879,26.425,26.425,0,0,1,11.947-9.016A44.6,44.6,0,0,1,890.5,90.647ZM992.674,90.5q15.539,0,27.193,6.3a44.042,44.042,0,0,1,18.1,18.251q6.45,11.947,6.45,28.513,0,16.125-6.6,28.586a47.79,47.79,0,0,1-18.4,19.35,52.355,52.355,0,0,1-26.9,6.89q-15.539,0-27.193-6.3a44.041,44.041,0,0,1-18.1-18.251q-6.45-11.947-6.45-28.513,0-16.125,6.6-28.586a47.79,47.79,0,0,1,18.4-19.35A52.356,52.356,0,0,1,992.674,90.5Zm-.586,2.639q-8.063,0-14.22,6.523t-9.455,18.251a99.293,99.293,0,0,0-3.3,26.827,87.4,87.4,0,0,0,3.738,26.827q3.738,11.581,10.115,17.885t14.146,6.3q8.063,0,14.22-6.523t9.455-18.251a99.283,99.283,0,0,0,3.3-26.827,87.413,87.413,0,0,0-3.738-26.827q-3.738-11.581-10.115-17.885T992.088,93.139Zm159.055,2.346q-4.838.733-7.11,2.492a9.124,9.124,0,0,0-3.079,5.571,58.749,58.749,0,0,0-.806,11.288v81.8l-3.518-.147-3.958.147-63.622-80.627V172.3a65.5,65.5,0,0,0,.88,12.68,8.721,8.721,0,0,0,3.812,5.864q2.932,1.832,9.529,2.565v2.932q-5.717-.44-15.832-.44-8.063,0-12.754.44v-2.932q4.838-.733,7.11-2.492a9.123,9.123,0,0,0,3.078-5.571,58.739,58.739,0,0,0,.806-11.288V108.091a28.764,28.764,0,0,0-.806-8.063,5.072,5.072,0,0,0-3.078-3.372,25.452,25.452,0,0,0-7.11-1.173V92.552q4.691.44,12.754.44,7.33,0,12.607-.44l56.732,69.926V116.594a65.477,65.477,0,0,0-.88-12.68,8.722,8.722,0,0,0-3.811-5.864q-2.932-1.832-9.529-2.565V92.552q5.717.44,15.832.44,8.209,0,12.754-.44Zm102.616,0q-4.838.733-7.11,2.492a9.124,9.124,0,0,0-3.079,5.571,58.749,58.749,0,0,0-.806,11.288v38.848q0,20.963-6.01,31.078a26.451,26.451,0,0,1-11.434,10.042q-7.477,3.592-18.324,3.592-17.005,0-26.387-7.33a26.439,26.439,0,0,1-9.089-13.707q-2.345-8.283-2.345-23.235V108.091a28.759,28.759,0,0,0-.806-8.063,5.073,5.073,0,0,0-3.079-3.372,25.45,25.45,0,0,0-7.11-1.173V92.552q7.476.44,22.869.44,15.246,0,23.308-.44v2.932a29.2,29.2,0,0,0-7.7,1.173,5.271,5.271,0,0,0-3.3,3.372,26.473,26.473,0,0,0-.88,8.063v55.266q0,15.392,4.471,22.649t15.759,7.256q14.659,0,20.67-9.9t6.01-28.073v-38.7a56.5,56.5,0,0,0-1.026-12.607,9.272,9.272,0,0,0-3.958-5.937q-2.932-1.832-9.235-2.565V92.552q5.57.44,15.832.44,8.209,0,12.754-.44Z" transform="translate(-856.927 37.306)"/>
</svg>
