<svg xmlns="http://www.w3.org/2000/svg" width="1791.427" height="210.051" viewBox="0 0 1791.427 210.051">
  <path id="Path_11814" data-name="Path 11814" d="M258.281,100.2q-9.7.571-13.984,2.283a9.906,9.906,0,0,0-5.851,6.564q-1.57,4.852-1.57,15.7V266.3q0,10.845,1.57,15.7a9.906,9.906,0,0,0,5.851,6.564q4.281,1.712,13.984,2.283v5.708Q244.3,295.7,214.9,295.7q-28.825,0-44.807.856v-5.708q9.418-.571,13.842-2.283A9.875,9.875,0,0,0,189.929,282q1.57-4.852,1.57-15.7V197.809h-75.63V266.3q0,10.845,1.57,15.7a9.906,9.906,0,0,0,5.851,6.564q4.281,1.712,13.984,2.283v5.708q-15.411-.856-43.095-.856-30.537,0-45.092.856v-5.708q9.418-.571,13.842-2.283A9.875,9.875,0,0,0,68.921,282q1.57-4.852,1.57-15.7V124.747q0-10.845-1.57-15.7a9.875,9.875,0,0,0-5.993-6.564Q58.5,100.774,49.086,100.2V94.5q14.555.856,45.092.856,27.683,0,43.095-.856V100.2q-9.7.571-13.984,2.283a9.906,9.906,0,0,0-5.851,6.564q-1.57,4.852-1.57,15.7V192.1H191.5V124.747q0-10.845-1.57-15.7a9.875,9.875,0,0,0-5.993-6.564q-4.424-1.712-13.842-2.283V94.5q15.982.856,44.807.856,29.4,0,43.38-.856ZM442.075,272.582q3.71,9.418,8.562,13.7t9.418,4.566v5.708q-17.124-.856-43.38-.856-29.11,0-43.38.856v-5.708q10.845-.571,15.411-2.711t4.566-7.563q0-5.137-3.425-13.7l-17.124-46.8H310.508l-7.42,19.692Q295.1,260.31,295.1,271.441q0,10.56,6.421,14.7t18.979,4.709v5.708q-19.407-.856-35.389-.856-13.128,0-21.69.856v-5.708q13.984-2.569,24.544-29.966l65.07-166.956q3.139.285,9.989.285t9.7-.285Zm-71.349-58.221L342.472,137.3l-29.681,77.057ZM614.74,94.5q-2,24.259-2,43.38,0,13.414.856,21.69h-6.564q-5.708-32.25-17.124-45.378T557.946,101.06h-9.418q-8.847,0-12.843,1.427a8.555,8.555,0,0,0-5.423,5.565q-1.427,4.138-1.427,13.271v71.92h9.989q15.126,0,22.974-11.13a69.555,69.555,0,0,0,10.988-26.542h6.564q-.856,11.987-.856,26.827v13.7q0,14.555,1.712,40.526h-6.564q-5.993-37.672-34.818-37.672h-9.989v65.641q0,11.416,2.426,16.7a12.587,12.587,0,0,0,8.562,6.992q6.136,1.712,19.55,2v6.279q-35.1-.856-52.227-.856-14.27,0-35.96.571l-9.133.285v-5.708q9.418-.571,13.842-2.283A9.875,9.875,0,0,0,481.888,282q1.57-4.852,1.57-15.7V124.747q0-10.845-1.57-15.7a9.875,9.875,0,0,0-5.993-6.564q-4.424-1.712-13.842-2.283V94.5q30.823.856,93.039.856Q597.045,95.352,614.74,94.5Zm189.788,0q-2,27.113-2,48.517,0,13.414.856,21.69h-6.564q-6.85-35.1-18.693-49.373t-32.392-14.27h-6.564V264.02q0,11.987,2.426,17.409a12.963,12.963,0,0,0,8.562,7.278q6.136,1.855,19.55,2.14v5.708q-35.96-.856-54.225-.856-17.98,0-52.227.856v-5.708q13.414-.285,19.55-2.14a12.963,12.963,0,0,0,8.562-7.278q2.426-5.423,2.426-17.409V101.06h-6.279q-13.7,0-23.26,5.993t-16.41,19.835Q641,140.73,636.144,164.7H629.58q.856-8.276.856-21.69,0-21.4-2-48.517,25.971.856,88.187.856T804.528,94.5ZM969.772,272.582q3.71,9.418,8.562,13.7t9.418,4.566v5.708q-17.124-.856-43.38-.856-29.11,0-43.38.856v-5.708q10.845-.571,15.411-2.711t4.566-7.563q0-5.137-3.425-13.7l-17.124-46.8H838.2l-7.42,19.692q-7.991,20.548-7.991,31.679,0,10.56,6.421,14.7t18.979,4.709v5.708q-19.407-.856-35.389-.856-13.128,0-21.69.856v-5.708q13.984-2.569,24.544-29.966l65.07-166.956q3.139.285,9.989.285t9.7-.285Zm-71.349-58.221L870.169,137.3l-29.681,77.057ZM1133.3,90.785q14.841,0,23.688,2.854a88.666,88.666,0,0,1,17.98,8.276q3.139,1.712,5.565,2.854a10.1,10.1,0,0,0,4.138,1.142q2.569,0,4-3a34.085,34.085,0,0,0,2.283-9.561h6.564q-1.427,19.121-1.427,65.07h-6.564a93.563,93.563,0,0,0-6.992-29.4,56.937,56.937,0,0,0-16.553-22.689,38.4,38.4,0,0,0-24.972-8.7q-13.984,0-22.689,7.848t-8.7,21.262a34.229,34.229,0,0,0,4.281,17.409,48.289,48.289,0,0,0,11.987,13.556q7.706,6.136,23.688,16.7l9.133,6.279a279.989,279.989,0,0,1,26.542,19.407,70.021,70.021,0,0,1,15.839,19.264q6.136,10.988,6.136,25.543,0,18.265-9.418,30.68t-25.543,18.693a97.966,97.966,0,0,1-35.817,6.279q-15.982,0-26.542-2.854a87.869,87.869,0,0,1-19.407-7.706q-6.279-4-9.7-4-2.569,0-4,3a34.09,34.09,0,0,0-2.283,9.561h-6.564q1.142-17.98,1.142-77.057h6.564q2,31.964,14.27,51.8t37.672,19.835q15.411,0,25.4-8.276t9.989-23.688a39.542,39.542,0,0,0-10.274-27.4q-10.274-11.416-32.535-25.686-17.124-11.13-27.4-19.407a70.424,70.424,0,0,1-16.838-19.55q-6.564-11.273-6.564-26.114,0-17.124,8.7-28.968a51.448,51.448,0,0,1,23.26-17.552A86.825,86.825,0,0,1,1133.3,90.785Zm198.921-.285q30.252,0,52.941,12.272a85.742,85.742,0,0,1,35.246,35.532q12.558,23.26,12.557,55.509,0,31.393-12.843,55.652a93.039,93.039,0,0,1-35.817,37.672q-22.974,13.414-52.37,13.414-30.252,0-52.941-12.272a85.743,85.743,0,0,1-35.246-35.532q-12.557-23.26-12.557-55.509,0-31.393,12.843-55.652a93.037,93.037,0,0,1,35.817-37.672Q1302.828,90.5,1332.224,90.5Zm-1.142,5.137q-15.7,0-27.683,12.7t-18.408,35.532q-6.422,22.832-6.422,52.227,0,29.681,7.278,52.227t19.692,34.818q12.415,12.272,27.541,12.272,15.7,0,27.683-12.7t18.408-35.532q6.421-22.832,6.421-52.227,0-29.681-7.278-52.227t-19.692-34.818Q1346.208,95.637,1331.082,95.637Zm309.654,4.566q-9.418,1.427-13.842,4.852T1620.9,115.9q-1.57,7.42-1.57,21.975V297.126l-6.85-.285-7.706.285L1480.915,140.159V249.751q0,16.838,1.713,24.687t7.42,11.416q5.708,3.567,18.551,4.994v5.708q-11.131-.856-30.823-.856-15.7,0-24.829.856v-5.708q9.418-1.427,13.842-4.852t5.993-10.845q1.569-7.42,1.57-21.975V124.747q0-10.845-1.57-15.7a9.875,9.875,0,0,0-5.993-6.564q-4.423-1.712-13.842-2.283V94.5q9.133.856,24.829.856,14.27,0,24.544-.856l110.448,136.134V141.3q0-16.838-1.712-24.687t-7.42-11.416q-5.708-3.567-18.551-4.994V94.5q11.13.856,30.823.856,15.982,0,24.829-.856Zm199.777,0q-9.418,1.427-13.842,4.852t-5.993,10.845q-1.57,7.42-1.57,21.975v75.63q0,40.812-11.7,60.5-7.706,12.557-22.261,19.55t-35.674,6.992q-33.106,0-51.371-14.27a51.474,51.474,0,0,1-17.694-26.684q-4.566-16.125-4.566-45.235V124.747q0-10.845-1.57-15.7a9.875,9.875,0,0,0-5.993-6.564q-4.424-1.712-13.842-2.283V94.5q14.555.856,44.522.856,29.681,0,45.378-.856V100.2q-10.274.571-14.983,2.283a10.261,10.261,0,0,0-6.421,6.564q-1.712,4.852-1.712,15.7V232.341q0,29.966,8.7,44.094t30.68,14.127q28.539,0,40.241-19.264t11.7-54.653V141.3q0-16.553-2-24.544t-7.706-11.559q-5.708-3.567-17.98-4.994V94.5q10.845.856,30.823.856,15.982,0,24.829-.856Z" transform="translate(-49.086 -90.5)"/>
</svg>
